<mxfile host="app.diagrams.net" modified="2022-01-27T02:49:42.831Z" agent="5.0 (Macintosh; Intel Mac OS X 10_15_7) AppleWebKit/605.1.15 (KHTML, like Gecko) Version/15.2 Safari/605.1.15" etag="deHdb7WG21RG4uDvUtkj" version="16.4.6" type="github">
  <diagram id="C5RBs43oDa-KdzZeNtuy" name="Page-1">
    <mxGraphModel dx="946" dy="604" grid="1" gridSize="10" guides="1" tooltips="1" connect="1" arrows="1" fold="1" page="1" pageScale="1" pageWidth="827" pageHeight="1169" math="0" shadow="0">
      <root>
        <mxCell id="WIyWlLk6GJQsqaUBKTNV-0" />
        <mxCell id="WIyWlLk6GJQsqaUBKTNV-1" parent="WIyWlLk6GJQsqaUBKTNV-0" />
        <mxCell id="tTdWva7OF1blu8iLClOX-15" style="edgeStyle=orthogonalEdgeStyle;rounded=0;orthogonalLoop=1;jettySize=auto;html=1;exitX=0.5;exitY=1;exitDx=0;exitDy=0;entryX=0.5;entryY=0;entryDx=0;entryDy=0;" edge="1" parent="WIyWlLk6GJQsqaUBKTNV-1" source="tTdWva7OF1blu8iLClOX-0" target="tTdWva7OF1blu8iLClOX-1">
          <mxGeometry relative="1" as="geometry" />
        </mxCell>
        <mxCell id="tTdWva7OF1blu8iLClOX-0" value="开始" style="ellipse;whiteSpace=wrap;html=1;aspect=fixed;" vertex="1" parent="WIyWlLk6GJQsqaUBKTNV-1">
          <mxGeometry x="80" y="20" width="40" height="40" as="geometry" />
        </mxCell>
        <mxCell id="tTdWva7OF1blu8iLClOX-16" style="edgeStyle=orthogonalEdgeStyle;rounded=0;orthogonalLoop=1;jettySize=auto;html=1;exitX=0.5;exitY=1;exitDx=0;exitDy=0;entryX=0.5;entryY=0;entryDx=0;entryDy=0;" edge="1" parent="WIyWlLk6GJQsqaUBKTNV-1" source="tTdWva7OF1blu8iLClOX-1" target="tTdWva7OF1blu8iLClOX-2">
          <mxGeometry relative="1" as="geometry" />
        </mxCell>
        <mxCell id="tTdWva7OF1blu8iLClOX-1" value="身份证图片&lt;br&gt;活体图片&lt;br&gt;活体唯一ID" style="rounded=0;whiteSpace=wrap;html=1;" vertex="1" parent="WIyWlLk6GJQsqaUBKTNV-1">
          <mxGeometry x="55" y="90" width="90" height="60" as="geometry" />
        </mxCell>
        <mxCell id="tTdWva7OF1blu8iLClOX-17" style="rounded=0;orthogonalLoop=1;jettySize=auto;html=1;exitX=0.5;exitY=1;exitDx=0;exitDy=0;entryX=0.5;entryY=0;entryDx=0;entryDy=0;" edge="1" parent="WIyWlLk6GJQsqaUBKTNV-1" source="tTdWva7OF1blu8iLClOX-2" target="tTdWva7OF1blu8iLClOX-5">
          <mxGeometry relative="1" as="geometry" />
        </mxCell>
        <mxCell id="tTdWva7OF1blu8iLClOX-27" value="否" style="edgeLabel;html=1;align=center;verticalAlign=middle;resizable=0;points=[];" vertex="1" connectable="0" parent="tTdWva7OF1blu8iLClOX-17">
          <mxGeometry x="-0.2359" y="-2" relative="1" as="geometry">
            <mxPoint as="offset" />
          </mxGeometry>
        </mxCell>
        <mxCell id="tTdWva7OF1blu8iLClOX-25" style="edgeStyle=orthogonalEdgeStyle;rounded=0;orthogonalLoop=1;jettySize=auto;html=1;exitX=1;exitY=0.5;exitDx=0;exitDy=0;entryX=0;entryY=0.5;entryDx=0;entryDy=0;" edge="1" parent="WIyWlLk6GJQsqaUBKTNV-1" source="tTdWva7OF1blu8iLClOX-2" target="tTdWva7OF1blu8iLClOX-3">
          <mxGeometry relative="1" as="geometry" />
        </mxCell>
        <mxCell id="tTdWva7OF1blu8iLClOX-26" value="是" style="edgeLabel;html=1;align=center;verticalAlign=middle;resizable=0;points=[];" vertex="1" connectable="0" parent="tTdWva7OF1blu8iLClOX-25">
          <mxGeometry x="-0.0353" y="-1" relative="1" as="geometry">
            <mxPoint as="offset" />
          </mxGeometry>
        </mxCell>
        <mxCell id="tTdWva7OF1blu8iLClOX-2" value="是否已认证" style="rhombus;whiteSpace=wrap;html=1;" vertex="1" parent="WIyWlLk6GJQsqaUBKTNV-1">
          <mxGeometry x="55" y="190" width="90" height="50" as="geometry" />
        </mxCell>
        <mxCell id="tTdWva7OF1blu8iLClOX-3" value="结束" style="ellipse;whiteSpace=wrap;html=1;aspect=fixed;" vertex="1" parent="WIyWlLk6GJQsqaUBKTNV-1">
          <mxGeometry x="230" y="195" width="40" height="40" as="geometry" />
        </mxCell>
        <mxCell id="tTdWva7OF1blu8iLClOX-18" style="rounded=0;orthogonalLoop=1;jettySize=auto;html=1;exitX=0.5;exitY=1;exitDx=0;exitDy=0;entryX=0.5;entryY=0;entryDx=0;entryDy=0;" edge="1" parent="WIyWlLk6GJQsqaUBKTNV-1" source="tTdWva7OF1blu8iLClOX-5" target="tTdWva7OF1blu8iLClOX-6">
          <mxGeometry relative="1" as="geometry" />
        </mxCell>
        <mxCell id="tTdWva7OF1blu8iLClOX-5" value="调用三方orc" style="rounded=0;whiteSpace=wrap;html=1;" vertex="1" parent="WIyWlLk6GJQsqaUBKTNV-1">
          <mxGeometry x="57.5" y="290" width="85" height="40" as="geometry" />
        </mxCell>
        <mxCell id="tTdWva7OF1blu8iLClOX-19" style="edgeStyle=orthogonalEdgeStyle;rounded=0;orthogonalLoop=1;jettySize=auto;html=1;exitX=0.5;exitY=1;exitDx=0;exitDy=0;" edge="1" parent="WIyWlLk6GJQsqaUBKTNV-1" source="tTdWva7OF1blu8iLClOX-6" target="tTdWva7OF1blu8iLClOX-9">
          <mxGeometry relative="1" as="geometry" />
        </mxCell>
        <mxCell id="tTdWva7OF1blu8iLClOX-29" value="是" style="edgeLabel;html=1;align=center;verticalAlign=middle;resizable=0;points=[];" vertex="1" connectable="0" parent="tTdWva7OF1blu8iLClOX-19">
          <mxGeometry x="-0.25" y="-1" relative="1" as="geometry">
            <mxPoint as="offset" />
          </mxGeometry>
        </mxCell>
        <mxCell id="tTdWva7OF1blu8iLClOX-24" style="edgeStyle=orthogonalEdgeStyle;rounded=0;orthogonalLoop=1;jettySize=auto;html=1;exitX=1;exitY=0.5;exitDx=0;exitDy=0;entryX=0;entryY=0.5;entryDx=0;entryDy=0;" edge="1" parent="WIyWlLk6GJQsqaUBKTNV-1" source="tTdWva7OF1blu8iLClOX-6" target="tTdWva7OF1blu8iLClOX-7">
          <mxGeometry relative="1" as="geometry" />
        </mxCell>
        <mxCell id="tTdWva7OF1blu8iLClOX-28" value="否" style="edgeLabel;html=1;align=center;verticalAlign=middle;resizable=0;points=[];" vertex="1" connectable="0" parent="tTdWva7OF1blu8iLClOX-24">
          <mxGeometry x="-0.2333" relative="1" as="geometry">
            <mxPoint as="offset" />
          </mxGeometry>
        </mxCell>
        <mxCell id="tTdWva7OF1blu8iLClOX-6" value="是否真实" style="rhombus;whiteSpace=wrap;html=1;" vertex="1" parent="WIyWlLk6GJQsqaUBKTNV-1">
          <mxGeometry x="55" y="370" width="90" height="50" as="geometry" />
        </mxCell>
        <mxCell id="tTdWva7OF1blu8iLClOX-30" style="edgeStyle=orthogonalEdgeStyle;rounded=0;orthogonalLoop=1;jettySize=auto;html=1;exitX=0.5;exitY=1;exitDx=0;exitDy=0;entryX=1;entryY=0.5;entryDx=0;entryDy=0;" edge="1" parent="WIyWlLk6GJQsqaUBKTNV-1" source="tTdWva7OF1blu8iLClOX-7" target="tTdWva7OF1blu8iLClOX-9">
          <mxGeometry relative="1" as="geometry" />
        </mxCell>
        <mxCell id="tTdWva7OF1blu8iLClOX-7" value="设置&lt;br&gt;审核失败状态" style="rounded=0;whiteSpace=wrap;html=1;" vertex="1" parent="WIyWlLk6GJQsqaUBKTNV-1">
          <mxGeometry x="210" y="372.5" width="90" height="47.5" as="geometry" />
        </mxCell>
        <mxCell id="tTdWva7OF1blu8iLClOX-20" style="edgeStyle=orthogonalEdgeStyle;rounded=0;orthogonalLoop=1;jettySize=auto;html=1;exitX=0.5;exitY=1;exitDx=0;exitDy=0;entryX=0.5;entryY=0;entryDx=0;entryDy=0;" edge="1" parent="WIyWlLk6GJQsqaUBKTNV-1" source="tTdWva7OF1blu8iLClOX-9" target="tTdWva7OF1blu8iLClOX-11">
          <mxGeometry relative="1" as="geometry" />
        </mxCell>
        <mxCell id="tTdWva7OF1blu8iLClOX-9" value="更新用户身份信息" style="rounded=0;whiteSpace=wrap;html=1;" vertex="1" parent="WIyWlLk6GJQsqaUBKTNV-1">
          <mxGeometry x="57.5" y="470" width="85" height="40" as="geometry" />
        </mxCell>
        <mxCell id="tTdWva7OF1blu8iLClOX-21" style="edgeStyle=orthogonalEdgeStyle;rounded=0;orthogonalLoop=1;jettySize=auto;html=1;exitX=0.5;exitY=1;exitDx=0;exitDy=0;entryX=0.5;entryY=0;entryDx=0;entryDy=0;" edge="1" parent="WIyWlLk6GJQsqaUBKTNV-1" source="tTdWva7OF1blu8iLClOX-11" target="tTdWva7OF1blu8iLClOX-13">
          <mxGeometry relative="1" as="geometry" />
        </mxCell>
        <mxCell id="tTdWva7OF1blu8iLClOX-33" value="是" style="edgeLabel;html=1;align=center;verticalAlign=middle;resizable=0;points=[];" vertex="1" connectable="0" parent="tTdWva7OF1blu8iLClOX-21">
          <mxGeometry x="-0.25" y="-1" relative="1" as="geometry">
            <mxPoint as="offset" />
          </mxGeometry>
        </mxCell>
        <mxCell id="tTdWva7OF1blu8iLClOX-31" style="edgeStyle=none;rounded=0;orthogonalLoop=1;jettySize=auto;html=1;entryX=0;entryY=0.5;entryDx=0;entryDy=0;" edge="1" parent="WIyWlLk6GJQsqaUBKTNV-1" source="tTdWva7OF1blu8iLClOX-11" target="tTdWva7OF1blu8iLClOX-14">
          <mxGeometry relative="1" as="geometry">
            <mxPoint x="170" y="585" as="targetPoint" />
          </mxGeometry>
        </mxCell>
        <mxCell id="tTdWva7OF1blu8iLClOX-34" value="否" style="edgeLabel;html=1;align=center;verticalAlign=middle;resizable=0;points=[];" vertex="1" connectable="0" parent="tTdWva7OF1blu8iLClOX-31">
          <mxGeometry x="-0.0462" y="2" relative="1" as="geometry">
            <mxPoint as="offset" />
          </mxGeometry>
        </mxCell>
        <mxCell id="tTdWva7OF1blu8iLClOX-11" value="是否&lt;br&gt;第一次审核" style="rhombus;whiteSpace=wrap;html=1;" vertex="1" parent="WIyWlLk6GJQsqaUBKTNV-1">
          <mxGeometry x="55" y="560" width="90" height="50" as="geometry" />
        </mxCell>
        <mxCell id="tTdWva7OF1blu8iLClOX-12" value="结束" style="ellipse;whiteSpace=wrap;html=1;aspect=fixed;" vertex="1" parent="WIyWlLk6GJQsqaUBKTNV-1">
          <mxGeometry x="80" y="730" width="40" height="40" as="geometry" />
        </mxCell>
        <mxCell id="tTdWva7OF1blu8iLClOX-22" style="edgeStyle=orthogonalEdgeStyle;rounded=0;orthogonalLoop=1;jettySize=auto;html=1;exitX=0.5;exitY=1;exitDx=0;exitDy=0;entryX=0.5;entryY=0;entryDx=0;entryDy=0;" edge="1" parent="WIyWlLk6GJQsqaUBKTNV-1" source="tTdWva7OF1blu8iLClOX-13" target="tTdWva7OF1blu8iLClOX-12">
          <mxGeometry relative="1" as="geometry" />
        </mxCell>
        <mxCell id="tTdWva7OF1blu8iLClOX-13" value="身份证信息&lt;br&gt;入库" style="rounded=0;whiteSpace=wrap;html=1;" vertex="1" parent="WIyWlLk6GJQsqaUBKTNV-1">
          <mxGeometry x="57.5" y="650" width="85" height="40" as="geometry" />
        </mxCell>
        <mxCell id="tTdWva7OF1blu8iLClOX-32" style="edgeStyle=orthogonalEdgeStyle;rounded=0;orthogonalLoop=1;jettySize=auto;html=1;exitX=0.5;exitY=1;exitDx=0;exitDy=0;entryX=1;entryY=0.5;entryDx=0;entryDy=0;" edge="1" parent="WIyWlLk6GJQsqaUBKTNV-1" source="tTdWva7OF1blu8iLClOX-14" target="tTdWva7OF1blu8iLClOX-12">
          <mxGeometry relative="1" as="geometry" />
        </mxCell>
        <mxCell id="tTdWva7OF1blu8iLClOX-14" value="更新身份信息&lt;br&gt;入库" style="rounded=0;whiteSpace=wrap;html=1;" vertex="1" parent="WIyWlLk6GJQsqaUBKTNV-1">
          <mxGeometry x="210" y="565" width="85" height="40" as="geometry" />
        </mxCell>
      </root>
    </mxGraphModel>
  </diagram>
</mxfile>
